<svg xmlns="http://www.w3.org/2000/svg" width="131.05" height="52.985" viewBox="0 0 131.05 52.985">
  <path id="Path_1" data-name="Path 1" d="M-64.365-.07a14.625,14.625,0,0,0,.56,5.53c.49,1.47.77,3.08,1.82,4.34a1.948,1.948,0,0,0,2.73.56A8.369,8.369,0,0,0-56.1,6.58,13.371,13.371,0,0,0-55.055.91c.14-2.1,0-4.27-.07-6.37a20.772,20.772,0,0,0-.49-3.01c-.14-.42-.14-.7.28-.91a3.108,3.108,0,0,0,.77-.56c1.54-1.61,3.15-3.08,4.55-4.76,1.26-1.54,2.8-2.87,3.36-4.97a5.3,5.3,0,0,0-.07-1.05,3.62,3.62,0,0,0-.91.42c-.91,1.33-1.75,2.73-2.73,3.99a21.089,21.089,0,0,1-5.46,5.67.431.431,0,0,1-.49-.07l-1.61-1.96a.421.421,0,0,1-.07-.28l.35-2.17.84-3.92a4.339,4.339,0,0,1,.84-2.03,28.317,28.317,0,0,0,4.34-6.72l1.33-3.29a22.958,22.958,0,0,0,1.26-6.16,9.243,9.243,0,0,0,.14-1.96,10.807,10.807,0,0,0-.28-2.1c-.07-.21-.21-.49-.42-.56a6.4,6.4,0,0,0-3.64-.28l-1.19.21a1.136,1.136,0,0,0-.63.35c-.7,1.12-1.4,2.31-2.03,3.5-1.61,3.01-2.17,6.3-3.01,9.45-.7,2.8-1.05,5.67-1.68,8.4A77.765,77.765,0,0,0-63.665-9.8c-.21,3.22-.63,6.51-.91,9.73Zm8.19-23.52c.21-.98.42-1.89.56-2.87l.35-2.87c.42-1.96.77-3.92,1.26-5.88.42-1.54.91-3.01,1.4-4.55,0-.14.07-.21.14-.35.21-.14.49-.49.56-.49.28.21.63.49.7.77a15.677,15.677,0,0,1-.07,5.11,30.047,30.047,0,0,1-2.38,6.93c-.7,1.54-1.54,3.08-2.31,4.62,0,.07-.07.14-.14.28v-.7Zm-1.61,29.96a6.88,6.88,0,0,1-.35,1.12.932.932,0,0,1-.63.42c-.14,0-.35-.28-.35-.49-.21-.91-.42-1.75-.56-2.66V3.71a10.338,10.338,0,0,0-.07-1.47,16.422,16.422,0,0,1,.28-4.13l.35-2.73.35-3.71.21-.21c.21.14.63.21.7.42a11.677,11.677,0,0,1,.35,2.17l.35,4.27Zm14.56-16.24a4.909,4.909,0,0,1,.14-2.03c.07-.14.14-.21.14-.35,0-.07.21-.28-.14-.21l-.14-.28c-.07,0-.14-.07-.21-.14-.07,0-.14.14-.14.21-.42.98-.84,2.03-1.33,3.01v.07a1.3,1.3,0,0,1-.14.49c0,.14-.14.21-.14.35h-.07a7.262,7.262,0,0,1-.28.7l-.07.07-.07-.07a2.977,2.977,0,0,0,.14-.77v-.14l.07-.07a.257.257,0,0,1-.07-.21.257.257,0,0,1,.07-.21c0-.07.07-.14.07-.21v-.07a15.479,15.479,0,0,1,.35-1.75l.56-3.15c.14-.7.28-1.33.49-2.03.14-.7.28-1.47.35-2.17.07-.49.07-.7.14-.77a.421.421,0,0,0-.07-.28v-.28a.312.312,0,0,1,.14-.42,2.225,2.225,0,0,0,.21-.63,6.08,6.08,0,0,0-.77-2.87,3.175,3.175,0,0,0-1.47-1.4c-.28-.07-.28-.28-.21-.49.07-.07.14-.14.14-.21s-.07-.14-.07-.21c-.07,0-.14.07-.21.07a1.191,1.191,0,0,1-.07.49,1.007,1.007,0,0,1-.21.14.58.58,0,0,0-.56-.21,10.52,10.52,0,0,1-1.4-.14c-.35,0-.49.21-.42.56a7.89,7.89,0,0,1,.21,1.26l-.63,4.13a.069.069,0,0,1-.07.07,2.394,2.394,0,0,1-.07,1.4.069.069,0,0,0-.07.07c-.28,1.61-.49,3.22-.7,4.83a38.369,38.369,0,0,0-.35,3.99v.91c.07,1.26.07,2.52.21,3.78a1.992,1.992,0,0,0,2.59,1.75,9.917,9.917,0,0,0,1.26-.56,5.786,5.786,0,0,0,.91-.49,5.645,5.645,0,0,0,1.82-2.45,2.961,2.961,0,0,0,.35-2.17c-.07-.14,0-.21.14-.21v-.21C-43.085-9.45-43.155-9.59-43.225-9.87Zm-3.22-22.33-1.05.14a.664.664,0,0,0-.49.91,4.449,4.449,0,0,1,.42,1.26,2.612,2.612,0,0,0,2.8,2.45,1.321,1.321,0,0,0,1.47-1.05,3.563,3.563,0,0,0-.42-2.8.6.6,0,0,0-.49-.42c-.7-.21-1.47-.42-2.17-.56Zm24.29-1.68a4.306,4.306,0,0,0-.91-.07l-3.5-.35-3.5-.14a1.007,1.007,0,0,0-.21-.14l.21-.98c0-.14.07-.28,0-.42a5.286,5.286,0,0,0-.77-.98,6.31,6.31,0,0,0-2.8-1.19c-.56-.14-.91,0-1.05.49a1,1,0,0,1-.14.42l-1.4,2.8c-.21.42-.21.42-.77.35l-6.02.21c-.49.07-.7.28-.63.56a4.646,4.646,0,0,0,.42,1.4,3.473,3.473,0,0,0,1.89,1.68,2.66,2.66,0,0,0,1.82.21c.14,0,.7.07.56-.07s.98.35.84.35c-.21,0,.21.07.14.14a7.648,7.648,0,0,1-.35,1.19l-.63,2.24-.56,2.52-.28,1.75v.21c-.14,2.38-.63,4.69-.7,7.07a.364.364,0,0,1-.14.28l.14,2.45a15.927,15.927,0,0,0,.14,1.82v.21c.14,1.12.7,6.86.91,7.98a4.575,4.575,0,0,0,.63,2.1,2.428,2.428,0,0,0,1.4,1.05,1.892,1.892,0,0,0,1.89-.63l.91-.77.49-.56c.28-.14.21-.49.77-.49.21,0,.35-.49.21-.63a2.456,2.456,0,0,1-.35-.56,12.5,12.5,0,0,1-.14-1.61c0-.7.07-1.47.14-2.17a3.692,3.692,0,0,1,.21-.84A2.925,2.925,0,0,1-33-7.7a.244.244,0,0,0-.07-.14.244.244,0,0,1-.14.07l-.42.56c0,.07-.07.07-.14.07V-7.7c0-.7-.35-5.88-.35-6.58V-16.1l.42-2.38.28-1.68a8.463,8.463,0,0,0,.35-1.26.525.525,0,0,0-.07-.35,1.506,1.506,0,0,1,0-.56l.28-.91a7.435,7.435,0,0,0,.28-1.33c.14-.49.21-1.05.42-1.61a3.068,3.068,0,0,0,.42-1.61,3.514,3.514,0,0,1,.14-.84l.28-1.12c.07-.21.07-.35.14-.42a5.839,5.839,0,0,1,.84-.56,16.747,16.747,0,0,1,1.47-.91,3.043,3.043,0,0,1,.49-.28c.21-.14.56-.14.63-.35a.514.514,0,0,1,.42-.14l.98-.14a5.021,5.021,0,0,1,1.47-.35,4.038,4.038,0,0,0,.98-.21,14.109,14.109,0,0,1,1.61-.49l.21-.14.07-.07C-22.085-33.88-22.085-33.88-22.155-33.88Zm5.81,12.81a1.262,1.262,0,0,0-.14-.7,6.647,6.647,0,0,0-.7-1.19l.14-.28-.35-.21-.21-.42h-.07a.318.318,0,0,1,0-.35h-.28a.244.244,0,0,1-.14.07l-.35-.21a1.269,1.269,0,0,0-1.4-.07.6.6,0,0,0-.21.98.864.864,0,0,1,.28.56,11.341,11.341,0,0,1-.07,1.54v.07l-1.12,2.59c-.21.63-.49,1.12-.98,1.19h.35l-.49.63-.14.21c-.7,1.05-1.33,2.03-2.1,3.01a20.61,20.61,0,0,1-2.17,2.1c-.07.07-.28.07-.28.07a3.99,3.99,0,0,1-.28-1.54,10.6,10.6,0,0,1,.49-2.59c.56-1.68,1.19-3.36,1.89-4.97a20.042,20.042,0,0,1,1.68-2.94c.35-.56.84-.98,1.19-1.47a10.1,10.1,0,0,1,1.54-1.89c1.19-.91,2.45-2.45,4.06-.84.07.07.21,0,.35,0,0-.14,0-.35-.07-.42-.77-.77-1.47-1.54-2.31-2.24a1.259,1.259,0,0,0-1.12-.14,11.967,11.967,0,0,0-3.29,1.61,26.143,26.143,0,0,0-4.2,3.64,15.452,15.452,0,0,0-2.87,4.41,15.479,15.479,0,0,0-1.47,5.81,6.53,6.53,0,0,0,.7,3.15A8.187,8.187,0,0,0-28.1-9.38c1.05.7,2.17,1.68,3.64.63.77-.56,1.61-.91,2.1-1.89a.244.244,0,0,1,.07-.14l.14-.35c.07,0,.14-.07.21-.14l.84-1.12h.07l.28-.42c-.35,1.19-.77,2.31-1.19,3.5a.151.151,0,0,0,.14-.14v.14a1.038,1.038,0,0,1-.07.49h.07c-.07.07-.07.07-.07.14-.28.98-.56,1.89-.77,2.87a14.294,14.294,0,0,0-.7,2.87,11.9,11.9,0,0,1-3.01,6.65c-1.12,1.19-2.38,2.24-3.99,2.17a7.957,7.957,0,0,1-2.52-.7,2.983,2.983,0,0,1-1.54-2.1c-.35-.91-.49-1.05-1.33-.98-.56.07-.77.28-.56.91a2.044,2.044,0,0,0,.14.63,5.009,5.009,0,0,0,2.1,3.15,8.551,8.551,0,0,0,3.92,1.19,5.787,5.787,0,0,0,3.36-.63,12.064,12.064,0,0,0,4.2-3.57c.21-.28.42-.7.63-.77.7-.14.56-.7.84-1.12a.151.151,0,0,1,.14-.14c.77-.28.98-1.05,1.26-1.75l.14-.63.91-2.94.21-.7c0-.07.14-.07.14-.14,0,.07.07.07.07.14,0,.49-.07,1.05-.07,1.54l.28-.21.42-1.47c.07-.07,0-.14,0-.21,0,.07-.07.14-.14.21l-.14.63c0,.07-.07.07-.07.14,0-.07-.07-.07-.07-.14V-5.25a13.978,13.978,0,0,1,.35-1.82.257.257,0,0,0-.07-.21.244.244,0,0,1-.07.14c-.14.35-.21.7-.35.98a.244.244,0,0,1-.07.14.244.244,0,0,1-.07-.14,7.384,7.384,0,0,0,.35-1.33,21.2,21.2,0,0,1,.42-2.24c.14-.77.42-1.54.56-2.31.21-1.19.35-2.38.49-3.57a.257.257,0,0,0-.07-.21v-.28l.21-.49.21-.91a13.593,13.593,0,0,0,.14-1.68A17.9,17.9,0,0,0-16.345-21.07Zm-2.87,15.89-.49.63c-.21.42-.35.84-.56,1.19,0,.14-.14.21-.21.28l-.21-.42.63-.98.7-.84h.07C-19.215-5.32-19.215-5.25-19.215-5.18Zm-1.61-4.97-.63,2.38c0,.14-.07.35-.07.49l-.21.35c0-.14-.07-.21,0-.21a10.647,10.647,0,0,1,.84-3.01.244.244,0,0,1,.07-.14Zm1.89,6.02a.069.069,0,0,0-.07.07.069.069,0,0,0-.07-.07l.28-1.05a.217.217,0,0,0,.14.07Zm-1.33,4.9c0-.21-.07-.28,0-.35a2.486,2.486,0,0,1,.28-.63c0,.07.14.14.07.14A7.289,7.289,0,0,1-20.265.77Zm.14-1.75c0-.07,0-.07.07-.14,0,.07.07.07.07.14l-.14.21Zm-.35,2.17c-.07,0-.07-.07-.14-.07l.07-.07c.07,0,.07,0,.14.07A.069.069,0,0,0-20.475,1.19Zm26.6-18.76c0,.14,0,.21-.07.28-.28.42-.42,1.05-1.19.77-.14-.07-.42.14-.56.28a9.313,9.313,0,0,0-1.33.98l-1.61,1.12a10.538,10.538,0,0,1-1.54.77.575.575,0,0,1-.49-.07c-.07-.21-.14-.56,0-.63.7-.7.63-1.61,1.05-2.38l.21-.28a1.319,1.319,0,0,1,.28-.63c-.07-.14,0-.28,0-.49a13,13,0,0,0,.35-2.38c0-1.05-.28-2.17-.35-3.29-.07-1.05-.98-2.03-.63-3.22.07,0,0-.07,0-.14-.35-.42-.56-.91-.91-1.26a3.948,3.948,0,0,0-1.4-.77,5.426,5.426,0,0,0-2.59.14c-.14.07-.42-.07-.63-.14-.42-.21-.84-.7-1.4-.77-.77-.07-1.33.63-1.89,1.12a12.677,12.677,0,0,0-1.47,1.26c-1.75,2.03-2.59,4.55-3.5,7a37.645,37.645,0,0,0-1.26,4.83c.07,0,.07.07.07.14a3.156,3.156,0,0,1-.21.77.069.069,0,0,0-.07.07c0,.07,0,.07-.07.14a4.306,4.306,0,0,1-.07.91v.07c0,.21-.07.35-.07.49,0,.07-.07.07-.07.14a8.16,8.16,0,0,0,.84,4.06,9.652,9.652,0,0,0,1.19,1.75,3.234,3.234,0,0,0,.49.49,5.942,5.942,0,0,0,4.2.77c1.61-.28,2.94-1.54,4.2-2.59A5.048,5.048,0,0,0-2.9-10.01c.35-.63.77-1.61,1.61-1.89a9.5,9.5,0,0,1,2.03-.21,12.981,12.981,0,0,0,2.31-.84c1.19-.77,2.66-1.26,3.15-2.87a.069.069,0,0,0,.07-.07c.21-.42.7-.84.7-1.33a1.084,1.084,0,0,1,.14-.56A2.236,2.236,0,0,0,6.125-17.57ZM-4.235-11.9l-1.68,2.45c-.28.42-.49.98-1.12.91-.07,0-.14.07-.21.14-.77.49-.84.56-1.4-.21a5.053,5.053,0,0,1-.63-1.4c-.14-.7-.21-1.47-.28-2.17a18.492,18.492,0,0,0-.14-2.03.525.525,0,0,1,.07-.35c.42-.56.07-1.05,0-1.61a3.646,3.646,0,0,1,.28-2.59,45.64,45.64,0,0,1,2.03-5.11.631.631,0,0,1-.07.35,15.681,15.681,0,0,0,0,7.21v.07c.07.07.07.07.07.14l.21.63a1.5,1.5,0,0,1,.28.49,4.154,4.154,0,0,0,2.45,2.52C-4.095-12.32-4.025-12.11-4.235-11.9Zm2.45-4.55-.21.42-.56,1.12H-2.9c-.28-.21.07-.98-.7-.7v-.21l.21-.14a1.04,1.04,0,0,1-.14-.63v-.21c-.14-1.05-.77-2.03-.7-3.15v-2.59a2.667,2.667,0,0,0-.21-.7h.07l.49-2.1c.07-.28,0-.56.07-.91.14-.91.77-1.19,1.61-.7a2.28,2.28,0,0,1,1.26,1.96c0,1.61.28,3.15.21,4.76a10.742,10.742,0,0,1-.7,2.87.069.069,0,0,1,.07.07A1.382,1.382,0,0,1-1.785-16.45Zm-1.54,3.01a.446.446,0,0,1-.42,0,2.931,2.931,0,0,1-1.68-2.17c0-.14.21-.35.28-.28a1.554,1.554,0,0,1,.77.35c.14.21.21.56.35.84a6.093,6.093,0,0,1,.63.77A.615.615,0,0,1-3.325-13.44Zm-8.96,1.05c-.56-2.38,0-3.22.21-.21.07.14.14.21.14.28,0,.21-.07.49.35.42A1.475,1.475,0,0,0-12-10.64l-.21.28c-.07-.07-.14-.14-.14-.21A16.439,16.439,0,0,0-12.285-12.39ZM-12-8.54l.21.14.28.21a.888.888,0,0,0,.07-.42c.07-.07-.07-.14-.07-.21l.21-.7.28.56.42,1.05C-11.235-7.42-11.585-7.63-12-8.54Zm6.79-7.98-.14-.21.14-.07.21.21c0,.07-.07.14-.07.21l-.21.14v-.07c.07,0,.14-.07.21-.07C-5.075-16.45-5.145-16.45-5.215-16.52Zm-5.25,8.89-.14-.28.21.21A.069.069,0,0,0-10.465-7.63Zm-1.19-4.55h.07v.28C-11.585-12.04-11.655-12.11-11.655-12.18Zm-.63,2.52-.07-.07a.069.069,0,0,1,.07-.07Zm31.99-.91c.7-1.61,2.66-3.29,2.66-5.18,0-.91,1.26-3.64.7-4.27-.07.21-1.75,2.45-1.82,2.66a1.183,1.183,0,0,1-.14.35l-1.47,2.03-3.36,5.39L16-9.45c0-.07-.14-.14-.14-.21l-.21-1.82a1.367,1.367,0,0,1-.07-.49c.07-.77.14-1.61.28-2.38.07-.91.21-1.82.35-2.73.14-.77.35-1.54.42-2.31a21.878,21.878,0,0,0,.28-3.01c.07-.84-.28-1.33-1.54-1.33a2.346,2.346,0,0,0-.7,0,1.3,1.3,0,0,0-1.47.98c-.35,1.12-.77,2.24-1.19,3.36l-.21.35-2.52,3.22-.56.63-.35.21a1.183,1.183,0,0,1-.14-.35,10.868,10.868,0,0,1,.21-2.17c.21-.56.28-1.05.49-1.61.14-.35.42-.7.56-1.12.21-.98,1.12-1.68,1.68-2.45a7.338,7.338,0,0,1,1.54-1.4,1.987,1.987,0,0,1,2.31-.35.928.928,0,0,0,.98-.14c.14-.21.07-.42-.42-.63a6.16,6.16,0,0,0-1.05-.35,5.378,5.378,0,0,0-2.59-.14l-.98.21a4.518,4.518,0,0,0-2.03.91,8.456,8.456,0,0,0-2.24,1.89c-.14.21-.49.42-.7.7a16.761,16.761,0,0,0-1.47,2.38,9.906,9.906,0,0,0-1.4,4.34,2.9,2.9,0,0,0,.35,1.33c.42.77,2.38,1.47,3.5,1.4a5.657,5.657,0,0,0,2.17-.7,9.12,9.12,0,0,0,1.05-.7l.14-.14v.49a11.745,11.745,0,0,0-.28,3.15,6.09,6.09,0,0,0,2.1,4.13,2.442,2.442,0,0,0,2.31.63l.98-.28a6.028,6.028,0,0,0,2.94-1.82l.63-.7.91-1.26A.708.708,0,0,1,19.705-10.57Zm21.21-23.31a4.306,4.306,0,0,0-.91-.07l-3.5-.35-3.5-.14a1.007,1.007,0,0,0-.21-.14l.21-.98c0-.14.07-.28,0-.42a5.286,5.286,0,0,0-.77-.98,6.31,6.31,0,0,0-2.8-1.19c-.56-.14-.91,0-1.05.49a1,1,0,0,1-.14.42l-1.4,2.8c-.21.42-.21.42-.77.35l-6.02.21c-.49.07-.7.28-.63.56a4.646,4.646,0,0,0,.42,1.4,3.473,3.473,0,0,0,1.89,1.68,2.66,2.66,0,0,0,1.82.21c.14,0,.7.07.56-.07s.98.35.84.35c-.21,0,.21.07.14.14a7.649,7.649,0,0,1-.35,1.19l-.63,2.24-.56,2.52-.28,1.75v.21c-.14,2.38-.63,4.69-.7,7.07a.364.364,0,0,1-.14.28l.14,2.45a15.927,15.927,0,0,0,.14,1.82v.21c.14,1.12.7,6.86.91,7.98a4.575,4.575,0,0,0,.63,2.1,2.428,2.428,0,0,0,1.4,1.05,1.892,1.892,0,0,0,1.89-.63l.91-.77.49-.56c.28-.14.21-.49.77-.49.21,0,.35-.49.21-.63a2.456,2.456,0,0,1-.35-.56,12.5,12.5,0,0,1-.14-1.61c0-.7.07-1.47.14-2.17a3.692,3.692,0,0,1,.21-.84,2.925,2.925,0,0,1,.28-.7A.244.244,0,0,0,30-7.84a.244.244,0,0,1-.14.07l-.42.56c0,.07-.07.07-.14.07V-7.7c0-.7-.35-5.88-.35-6.58V-16.1l.42-2.38.28-1.68A8.464,8.464,0,0,0,30-21.42a.525.525,0,0,0-.07-.35,1.506,1.506,0,0,1,0-.56l.28-.91a7.435,7.435,0,0,0,.28-1.33c.14-.49.21-1.05.42-1.61a3.068,3.068,0,0,0,.42-1.61,3.514,3.514,0,0,1,.14-.84l.28-1.12c.07-.21.07-.35.14-.42a5.839,5.839,0,0,1,.84-.56,16.747,16.747,0,0,1,1.47-.91,3.044,3.044,0,0,1,.49-.28c.21-.14.56-.14.63-.35a.514.514,0,0,1,.42-.14l.98-.14a5.021,5.021,0,0,1,1.47-.35,4.038,4.038,0,0,0,.98-.21,14.109,14.109,0,0,1,1.61-.49l.21-.14.07-.07C40.985-33.88,40.985-33.88,40.915-33.88Zm-9.94,18.97a13.488,13.488,0,0,0,.07,1.68c.35,2.59,1.61,3.99,4.06,4.13,4.55.49,8.33-3.08,9.24-3.85,1.68-1.4,3.22-3.01,4.83-4.55l.35-.49c.14-.35.28-.63-.07-.91a.586.586,0,0,0-.84.21l-1.89,2.1L44-14c-1.12.98-4.76,3.78-7.42,2.66a.938.938,0,0,1-.56-.91,14.588,14.588,0,0,1,1.12-5.11,1.205,1.205,0,0,1,1.05-.84,4.285,4.285,0,0,0,1.19-.49c.35-.14.63-.42.91-.49a5.993,5.993,0,0,0,2.52-1.4,8.72,8.72,0,0,0,2.94-3.64c.21-.56.21-1.12.35-1.61,0-.14-.07-.28-.14-.28a6.936,6.936,0,0,0-1.19-.77,14.025,14.025,0,0,0-1.82-.7,1.938,1.938,0,0,0-.63-.07,7.608,7.608,0,0,1-1.26.07,4.772,4.772,0,0,0-3.78,1.05,10.594,10.594,0,0,0-3.85,4.2c-.07,0-.07,0-.07.07A11.994,11.994,0,0,0,30.975-14.91Zm12.88-10.15c-.21.49-.28.91-.42,1.26a10.459,10.459,0,0,1-4.34,4.2l-.7.42-.42.14a1.191,1.191,0,0,1,.07-.49l.49-1.19c.07-.07.21-.21.21-.28.14-1.19,1.05-1.96,1.61-2.87a4.71,4.71,0,0,1,1.89-1.82.909.909,0,0,1,.7-.14A10.473,10.473,0,0,1,43.855-25.06Zm3.92,10.15a13.488,13.488,0,0,0,.07,1.68c.35,2.59,1.61,3.99,4.06,4.13,4.55.49,8.33-3.08,9.24-3.85,1.68-1.4,3.22-3.01,4.83-4.55l.35-.49c.14-.35.28-.63-.07-.91a.586.586,0,0,0-.84.21l-1.89,2.1L60.8-14c-1.12.98-4.76,3.78-7.42,2.66a.938.938,0,0,1-.56-.91,14.588,14.588,0,0,1,1.12-5.11,1.205,1.205,0,0,1,1.05-.84,4.285,4.285,0,0,0,1.19-.49c.35-.14.63-.42.91-.49a5.993,5.993,0,0,0,2.52-1.4,8.72,8.72,0,0,0,2.94-3.64c.21-.56.21-1.12.35-1.61,0-.14-.07-.28-.14-.28a6.936,6.936,0,0,0-1.19-.77,14.025,14.025,0,0,0-1.82-.7,1.938,1.938,0,0,0-.63-.07,7.608,7.608,0,0,1-1.26.07,4.772,4.772,0,0,0-3.78,1.05,10.594,10.594,0,0,0-3.85,4.2c-.07,0-.07,0-.07.07A11.994,11.994,0,0,0,47.775-14.91Zm12.88-10.15c-.21.49-.28.91-.42,1.26a10.459,10.459,0,0,1-4.34,4.2l-.7.42-.42.14a1.191,1.191,0,0,1,.07-.49l.49-1.19c.07-.07.21-.21.21-.28.14-1.19,1.05-1.96,1.61-2.87a4.71,4.71,0,0,1,1.89-1.82.909.909,0,0,1,.7-.14A10.473,10.473,0,0,1,60.655-25.06Z" transform="translate(64.575 42.286)" fill="#f60"/>
</svg>
